<?xml version="1.0" standalone="no"?>
<!DOCTYPE svg PUBLIC "-//W3C//DTD SVG 20010904//EN"
 "http://www.w3.org/TR/2001/REC-SVG-20010904/DTD/svg10.dtd">
<svg version="1.0" xmlns="http://www.w3.org/2000/svg"
 width="700.000000pt" height="700.000000pt" viewBox="0 0 700.000000 700.000000"
 preserveAspectRatio="xMidYMid meet">
<metadata>
Created by potrace 1.14, written by Peter Selinger 2001-2017
</metadata>
<g transform="translate(0.000000,700.000000) scale(0.100000,-0.100000)"
fill="#000000" stroke="none">
<path d="M3478 6606 c-1 -2 -39 -6 -83 -9 -144 -10 -287 -48 -399 -104 -44
-22 -480 -273 -983 -564 -83 -49 -167 -97 -185 -107 -92 -52 -382 -220 -448
-260 -186 -112 -402 -273 -511 -382 -138 -138 -185 -254 -207 -510 -9 -104 -8
-2329 1 -2370 3 -14 8 -51 12 -83 3 -33 10 -70 15 -83 5 -13 8 -24 5 -24 -2 0
7 -26 19 -58 96 -243 348 -438 1166 -900 19 -11 177 -102 350 -202 173 -100
335 -194 360 -208 25 -14 128 -73 230 -131 253 -145 288 -159 490 -198 49 -9
306 -11 350 -3 25 4 63 11 85 14 91 15 263 79 335 126 14 9 250 145 353 204
23 13 136 78 251 145 115 66 210 121 212 121 1 0 38 21 81 48 43 26 89 53 103
59 14 7 43 24 65 37 22 14 51 31 65 39 116 63 453 262 525 310 134 90 302 218
372 284 151 143 212 280 231 523 9 115 8 2240 -1 2361 -12 166 -52 299 -118
396 -66 97 -207 218 -445 382 -83 58 -756 454 -1034 608 -25 14 -70 40 -100
58 -30 18 -71 42 -90 53 -38 21 -71 40 -325 187 -235 135 -331 181 -421 199
-10 3 -41 9 -69 16 -27 6 -90 13 -140 16 -49 3 -95 7 -102 9 -6 2 -13 2 -15 1z
m197 -461 c84 -15 63 -3 809 -434 154 -89 283 -161 288 -161 4 0 8 -4 8 -9 0
-5 6 -11 13 -13 8 -2 153 -83 324 -182 280 -161 493 -299 612 -396 96 -78 152
-176 167 -296 5 -33 8 -563 8 -1179 0 -1037 -2 -1125 -18 -1185 -37 -138 -94
-201 -333 -367 -56 -39 -143 -96 -195 -126 -159 -93 -271 -157 -276 -157 -3 0
-13 -6 -21 -14 -9 -7 -38 -26 -66 -41 -42 -23 -289 -165 -405 -233 -19 -11
-51 -29 -70 -40 -19 -11 -134 -77 -255 -147 -121 -71 -236 -137 -255 -148 -19
-11 -69 -39 -110 -63 -162 -93 -249 -115 -430 -110 -146 5 -210 22 -335 93
-55 31 -113 64 -130 73 -16 9 -41 23 -55 32 -22 14 -433 251 -520 301 -19 11
-138 79 -265 152 -126 73 -246 142 -265 153 -473 269 -689 426 -749 545 -32
65 -40 93 -48 165 -9 87 -9 2196 0 2283 13 119 46 191 126 269 68 65 275 214
404 289 229 133 596 346 637 369 25 13 155 89 290 167 509 294 646 372 675
383 59 22 141 39 205 41 36 1 66 4 67 5 3 3 116 -10 168 -19z"/>
<path d="M3497 4593 c-1 -1 -34 -3 -72 -4 -300 -10 -621 -188 -812 -449 -265
-363 -275 -861 -25 -1240 72 -110 169 -210 287 -298 93 -69 303 -157 425 -177
19 -3 49 -8 65 -11 40 -8 231 -7 275 0 270 47 453 138 631 315 87 87 181 217
220 307 26 61 68 181 74 214 3 14 7 34 9 45 14 73 18 119 18 204 0 54 -2 111
-6 127 -3 16 -8 49 -11 73 -13 92 -75 258 -135 361 -39 65 -127 174 -189 233
-177 166 -380 262 -623 292 -58 7 -128 12 -131 8z m160 -457 c133 -35 210 -80
313 -185 82 -84 137 -181 167 -293 21 -83 21 -234 -1 -318 -66 -252 -286 -452
-536 -487 -209 -30 -396 29 -549 172 -196 184 -259 473 -157 724 86 213 303
377 531 403 60 7 174 -1 232 -16z"/>
</g>
</svg>
